<svg width="79" height="15" viewBox="0 0 79 15" fill="none" xmlns="http://www.w3.org/2000/svg">
<path d="M12.7869 0.19104V14.3655H10.1984L4.03164 5.44419H3.92783V14.3655H0.930969V0.19104H3.561L9.6793 9.10548H9.80388V0.19104H12.7869Z" fill="#263238"/>
<path d="M20.0524 14.5732C18.9588 14.5732 18.0175 14.3517 17.2285 13.9087C16.4441 13.4612 15.8397 12.8291 15.4152 12.0124C14.9907 11.191 14.7785 10.2198 14.7785 9.09855C14.7785 8.00501 14.9907 7.04528 15.4152 6.21936C15.8397 5.39343 16.4372 4.74977 17.2078 4.28836C17.9829 3.82695 18.8919 3.59624 19.9347 3.59624C20.636 3.59624 21.2889 3.70929 21.8934 3.93538C22.5025 4.15686 23.0331 4.49138 23.4853 4.93895C23.942 5.38651 24.2973 5.94943 24.5511 6.62771C24.8049 7.30136 24.9318 8.09037 24.9318 8.99474V9.80451H15.955V7.97733H22.1564C22.1564 7.55283 22.0641 7.17678 21.8795 6.84918C21.695 6.52158 21.4389 6.2655 21.1113 6.08093C20.7883 5.89176 20.4123 5.79717 19.9832 5.79717C19.5356 5.79717 19.1388 5.90098 18.7927 6.10862C18.4513 6.31164 18.1837 6.58618 17.9899 6.93224C17.7961 7.27368 17.6969 7.65434 17.6923 8.07422V9.81143C17.6923 10.3374 17.7891 10.7919 17.9829 11.1749C18.1813 11.5579 18.4605 11.8532 18.8204 12.0608C19.1803 12.2684 19.6071 12.3723 20.1008 12.3723C20.4284 12.3723 20.7283 12.3261 21.0006 12.2338C21.2728 12.1416 21.5058 12.0031 21.6996 11.8186C21.8934 11.634 22.041 11.4079 22.1425 11.1403L24.8695 11.3202C24.7311 11.9754 24.4473 12.5476 24.0182 13.0367C23.5937 13.5212 23.0446 13.8995 22.3709 14.1718C21.7019 14.4394 20.929 14.5732 20.0524 14.5732Z" fill="#263238"/>
<path d="M29.1294 3.73467L31.0812 7.45132L33.0814 3.73467H36.106L33.0261 9.05011L36.189 14.3655H33.1783L31.0812 10.6904L29.0187 14.3655H25.9734L29.1294 9.05011L26.0841 3.73467H29.1294Z" fill="#263238"/>
<path d="M42.2796 14.5732C41.1907 14.5732 40.254 14.3425 39.4696 13.8811C38.6899 13.415 38.09 12.7691 37.6701 11.9431C37.2549 11.1172 37.0472 10.1667 37.0472 9.09163C37.0472 8.00271 37.2572 7.04759 37.6771 6.22628C38.1016 5.40036 38.7037 4.75669 39.4835 4.29528C40.2633 3.82926 41.1907 3.59624 42.2658 3.59624C43.1932 3.59624 44.0053 3.76466 44.702 4.10149C45.3988 4.43832 45.9501 4.91126 46.3562 5.52032C46.7622 6.12938 46.986 6.84457 47.0275 7.66588H44.2452C44.1668 7.13526 43.9592 6.70845 43.6223 6.38547C43.2901 6.05786 42.8541 5.89406 42.3142 5.89406C41.8574 5.89406 41.4583 6.01864 41.1169 6.26781C40.78 6.51235 40.517 6.86995 40.3279 7.34058C40.1387 7.81122 40.0441 8.38106 40.0441 9.05011C40.0441 9.72838 40.1364 10.3051 40.3209 10.7804C40.5101 11.2556 40.7754 11.6179 41.1169 11.867C41.4583 12.1162 41.8574 12.2408 42.3142 12.2408C42.6511 12.2408 42.9533 12.1715 43.2209 12.0331C43.4931 11.8947 43.7169 11.694 43.8922 11.431C44.0722 11.1634 44.1899 10.8427 44.2452 10.4689H47.0275C46.9814 11.281 46.7599 11.9962 46.3631 12.6145C45.9709 13.2282 45.4287 13.708 44.7366 14.0541C44.0445 14.4002 43.2255 14.5732 42.2796 14.5732Z" fill="#263238"/>
<path d="M53.7601 14.5732C52.6665 14.5732 51.7253 14.3517 50.9362 13.9087C50.1518 13.4612 49.5474 12.8291 49.1229 12.0124C48.6984 11.191 48.4862 10.2198 48.4862 9.09855C48.4862 8.00501 48.6984 7.04528 49.1229 6.21936C49.5474 5.39343 50.1449 4.74977 50.9155 4.28836C51.6906 3.82695 52.5996 3.59624 53.6424 3.59624C54.3438 3.59624 54.9966 3.70929 55.6011 3.93538C56.2102 4.15686 56.7408 4.49138 57.193 4.93895C57.6498 5.38651 58.005 5.94943 58.2588 6.62771C58.5126 7.30136 58.6395 8.09037 58.6395 8.99474V9.80451H49.6628V7.97733H55.8641C55.8641 7.55283 55.7718 7.17678 55.5873 6.84918C55.4027 6.52158 55.1466 6.2655 54.819 6.08093C54.496 5.89176 54.12 5.79717 53.6909 5.79717C53.2433 5.79717 52.8465 5.90098 52.5004 6.10862C52.159 6.31164 51.8914 6.58618 51.6976 6.93224C51.5038 7.27368 51.4046 7.65434 51.4 8.07422V9.81143C51.4 10.3374 51.4969 10.7919 51.6906 11.1749C51.8891 11.5579 52.1682 11.8532 52.5281 12.0608C52.888 12.2684 53.3148 12.3723 53.8085 12.3723C54.1361 12.3723 54.436 12.3261 54.7083 12.2338C54.9805 12.1416 55.2135 12.0031 55.4073 11.8186C55.6011 11.634 55.7487 11.4079 55.8503 11.1403L58.5772 11.3202C58.4388 11.9754 58.155 12.5476 57.7259 13.0367C57.3014 13.5212 56.7523 13.8995 56.0787 14.1718C55.4096 14.4394 54.6367 14.5732 53.7601 14.5732Z" fill="#263238"/>
<path d="M63.512 8.21957V14.3655H60.5636V3.73467H63.3735V5.6103H63.4981C63.7334 4.99201 64.1279 4.50291 64.6816 4.14301C65.2353 3.7785 65.9067 3.59624 66.6957 3.59624C67.4339 3.59624 68.0776 3.75774 68.6267 4.08072C69.1758 4.40371 69.6026 4.86512 69.9071 5.46495C70.2116 6.06017 70.3639 6.77074 70.3639 7.59667V14.3655H67.4155V8.12267C67.4201 7.47209 67.254 6.96453 66.9172 6.60002C66.5803 6.23089 66.1166 6.04633 65.526 6.04633C65.1292 6.04633 64.7785 6.13169 64.474 6.30241C64.1741 6.47313 63.9388 6.72229 63.768 7.0499C63.6019 7.37288 63.5166 7.76277 63.512 8.21957Z" fill="#263238"/>
<path d="M78.3422 3.73467V5.94943H71.9402V3.73467H78.3422ZM73.3936 1.18769H76.342V11.0988C76.342 11.371 76.3836 11.5832 76.4666 11.7355C76.5497 11.8832 76.665 11.987 76.8127 12.047C76.9649 12.1069 77.1403 12.1369 77.3387 12.1369C77.4771 12.1369 77.6155 12.1254 77.754 12.1023C77.8924 12.0746 77.9985 12.0539 78.0723 12.04L78.536 14.234C78.3884 14.2802 78.1808 14.3332 77.9131 14.3932C77.6455 14.4578 77.3202 14.497 76.9373 14.5109C76.2267 14.5386 75.6038 14.444 75.0685 14.2271C74.5379 14.0103 74.125 13.6734 73.8297 13.2166C73.5344 12.7598 73.389 12.1831 73.3936 11.4863V1.18769Z" fill="#263238"/>
</svg>
