<svg width="16" height="11" viewBox="0 0 16 11" fill="none" xmlns="http://www.w3.org/2000/svg">
<path d="M10.3584 0.171875H10.3594C11.0488 0.169873 11.7244 0.353247 12.3154 0.701172L12.5635 0.860352C13.129 1.25478 13.5764 1.79357 13.8604 2.41797L13.9717 2.69043C14.2418 3.43068 14.2773 4.23694 14.0732 4.99805C13.8691 5.75902 13.4352 6.43863 12.8311 6.94434L12.627 7.11523L12.8691 7.22461C13.7378 7.61769 14.5006 8.2078 15.0977 8.94629L15.3428 9.27148L15.3438 9.27246C15.3883 9.33478 15.4205 9.40578 15.4375 9.48047C15.446 9.51774 15.4502 9.55572 15.4512 9.59375L15.4434 9.70801C15.4368 9.74586 15.426 9.78273 15.4121 9.81836L15.3613 9.91992C15.3407 9.95223 15.3165 9.98229 15.29 10.0098L15.2031 10.084L15.2012 10.085C15.1038 10.1546 14.9869 10.1917 14.8672 10.1914L14.7969 10.1875C14.7507 10.1817 14.7056 10.1698 14.6621 10.1533L14.5977 10.125C14.5147 10.0818 14.4428 10.0197 14.3887 9.94336H14.3896C13.9913 9.37824 13.4792 8.90349 12.8877 8.5498L12.6289 8.40625C12.0154 8.0877 11.343 7.90145 10.6553 7.85938L10.3594 7.85059L10.2441 7.83887C10.1694 7.82387 10.0986 7.79424 10.0352 7.75195L9.94629 7.67969C9.83679 7.57019 9.77449 7.42145 9.77441 7.2666C9.77441 7.15043 9.80955 7.03765 9.87305 6.94238L9.94629 6.85352C10.0559 6.74396 10.2044 6.68164 10.3594 6.68164C10.9791 6.68156 11.5766 6.4665 12.0518 6.07715L12.248 5.89941C12.7487 5.39855 13.0303 4.71895 13.0303 4.01074C13.0302 3.39098 12.8142 2.79357 12.4248 2.31836L12.248 2.12207C11.8098 1.6838 11.2345 1.41424 10.623 1.35352L10.3594 1.33984C10.1761 1.3395 9.99344 1.35871 9.81445 1.39648L9.63672 1.44043L9.63477 1.44141C9.56074 1.46341 9.48304 1.47011 9.40625 1.46191C9.36779 1.45779 9.32969 1.45002 9.29297 1.43848L9.18652 1.39258C9.11867 1.35521 9.0589 1.30482 9.01074 1.24414C8.98677 1.21392 8.96574 1.18163 8.94824 1.14746L8.90625 1.03906C8.8853 0.964525 8.87923 0.886417 8.88867 0.80957C8.8934 0.77127 8.90197 0.733714 8.91406 0.697266L8.96094 0.591797C8.98021 0.558058 9.00289 0.526195 9.02832 0.49707L9.1123 0.417969C9.14295 0.39442 9.17545 0.37343 9.20996 0.356445L9.31836 0.316406L9.32129 0.31543C9.57439 0.243372 9.83461 0.198517 10.0967 0.180664L10.3584 0.171875ZM5.25684 0.166992C5.94595 0.166992 6.6208 0.352317 7.21094 0.701172L7.45801 0.860352C8.0225 1.25535 8.4694 1.79398 8.75293 2.41797L8.86426 2.69141C9.10018 3.33855 9.15666 4.03533 9.03125 4.70898L8.9668 4.99707C8.76364 5.75779 8.33105 6.43745 7.72852 6.94434L7.52637 7.11523L7.76758 7.22461C8.63617 7.61772 9.39904 8.20779 9.99609 8.94629L10.2412 9.27148L10.2461 9.27832C10.2704 9.30949 10.2921 9.34269 10.3096 9.37793L10.3506 9.48926C10.3606 9.52739 10.367 9.5663 10.3691 9.60547L10.3633 9.72363C10.3575 9.76264 10.3484 9.80102 10.335 9.83789L10.2832 9.94434C10.2417 10.0117 10.1867 10.0697 10.1221 10.1152C10.0898 10.138 10.0555 10.1581 10.0195 10.1738L9.90625 10.209C9.86758 10.2171 9.82838 10.2215 9.78906 10.2217L9.67188 10.2109C9.63301 10.2032 9.59492 10.1911 9.55859 10.1758L9.45508 10.1191C9.42253 10.0968 9.3925 10.0713 9.36523 10.043L9.29199 9.9502L9.28711 9.94336L9.11035 9.70703C8.74211 9.24427 8.29358 8.85157 7.78613 8.54785L7.52832 8.40332C6.82683 8.03874 6.04741 7.84863 5.25684 7.84863C4.56523 7.84867 3.88265 7.99479 3.25293 8.27539L2.98633 8.40332C2.37244 8.72239 1.83375 9.16741 1.4043 9.70703L1.22656 9.94336V9.94434C1.17317 10.021 1.10142 10.0838 1.01855 10.127C0.956564 10.1591 0.889297 10.1793 0.820312 10.1875L0.75 10.1914H0.749023C0.659072 10.1916 0.57088 10.1708 0.491211 10.1309L0.415039 10.085H0.414062C0.31934 10.0181 0.247306 9.92491 0.206055 9.81836L0.175781 9.70703C0.156002 9.59289 0.170803 9.47656 0.216797 9.37207L0.273438 9.27148C0.900362 8.38048 1.75451 7.67378 2.74707 7.22461L2.98828 7.11523L2.78516 6.94434C2.25809 6.50087 1.86178 5.92486 1.63477 5.27832L1.54785 4.99707C1.37017 4.33146 1.37488 3.63166 1.55957 2.97168L1.65039 2.69141C1.88651 2.04394 2.29129 1.473 2.82129 1.03809L3.05566 0.860352C3.70083 0.408906 4.46942 0.167052 5.25684 0.166992ZM5.77832 1.3916C5.3249 1.30141 4.85681 1.3304 4.41992 1.47461L4.23535 1.54395C3.80834 1.72082 3.43546 2.00469 3.15234 2.36719L3.03613 2.52734C2.74279 2.96644 2.58601 3.48268 2.58594 4.01074C2.58594 4.63071 2.80181 5.22877 3.19141 5.7041L3.36816 5.89941C3.86899 6.40024 4.54857 6.68156 5.25684 6.68164C5.71912 6.68164 6.17289 6.56258 6.57324 6.33594L6.74121 6.23145C7.12538 5.97467 7.43568 5.62357 7.64258 5.21289L7.72461 5.0332C7.90143 4.60631 7.96425 4.14195 7.9082 3.68555L7.87695 3.49023C7.7868 3.03699 7.5805 2.61595 7.28027 2.26758L7.14551 2.12207C6.77205 1.74874 6.29623 1.49465 5.77832 1.3916Z" fill="#4CAF4F" stroke="#4CAF4F" stroke-width="0.333867"/>
</svg>
